<?xml version="1.0" encoding="UTF-8" standalone="no"?>
<!DOCTYPE svg PUBLIC "-//W3C//DTD SVG 1.1//EN" "http://www.w3.org/Graphics/SVG/1.1/DTD/svg11.dtd">
<svg width="100%" height="100%" viewBox="0 0 1000 1000" version="1.1" xmlns="http://www.w3.org/2000/svg" xmlns:xlink="http://www.w3.org/1999/xlink" xml:space="preserve" xmlns:serif="http://www.serif.com/" style="fill-rule:evenodd;clip-rule:evenodd;stroke-linejoin:round;stroke-miterlimit:2;">
    <g transform="matrix(3.861,0,0,3.861,-676.834,-16.6023)">
        <path d="M409.5,7.5C407.4,5.4 404.8,4.3 401.9,4.3L207.7,4.3C204.8,4.3 202.2,5.4 200.1,7.5C198,9.6 196.9,12.2 196.9,15.1L196.9,144.6C196.9,154.3 198.8,163.8 202.5,173.3C206.3,182.8 210.9,191.2 216.5,198.6C222.1,206 228.7,213.1 236.4,220.1C244.1,227.1 251.2,232.9 257.7,237.5C264.2,242.1 271,246.5 278.1,250.6C285.2,254.7 290.2,257.5 293.2,258.9C296.2,260.4 298.6,261.5 300.4,262.3C301.7,263 303.2,263.3 304.8,263.3C306.4,263.3 307.8,263 309.2,262.3C311,261.5 313.4,260.4 316.4,258.9C319.4,257.4 324.4,254.7 331.5,250.6C338.6,246.5 345.4,242.1 351.9,237.5C358.4,232.9 365.5,227.1 373.2,220.1C380.9,213.1 387.5,206 393.1,198.6C398.7,191.2 403.3,182.8 407.1,173.3C410.9,163.8 412.7,154.2 412.7,144.6L412.7,15.1C412.7,12.2 411.6,9.7 409.5,7.5ZM384.5,145.8C384.5,192.7 304.9,233 304.9,233L304.9,32L384.5,32L384.5,145.8Z" style="fill:rgb(23,93,220);fill-rule:nonzero;"/>
    </g>
    <g transform="matrix(7.97841,0,0,7.97841,213.277,137.066)">
        <path d="M71.875,71.877L0,71.877L0,0L71.875,0L71.875,71.877Z" style="fill:none;"/>
        <clipPath id="_clip1">
            <path d="M71.875,71.877L0,71.877L0,0L71.875,0L71.875,71.877Z"/>
        </clipPath>
        <g clip-path="url(#_clip1)">
            <g transform="matrix(0.0467209,0,0,0.0467245,0.529789,0.529809)">
                <rect x="376" y="1072" width="768" height="304" style="fill:rgb(220,23,96);"/>
            </g>
            <g transform="matrix(0.0467209,0,0,0.0467245,0.529789,0.529809)">
                <path d="M1048,448L1048,768L472,768L472,224L824,224L824,448L1048,448ZM920,231L1031,352L920,352L920,231ZM216,832C181,832 152,804 152,768C152,733 181,704 216,704C252,704 280,733 280,768C280,804 252,832 216,832ZM1400,608L1144,608L1144,333L957,128L376,128L376,608L120,608C85,608 56,637 56,672L56,1312C56,1348 85,1376 120,1376L312,1376L312,1008L1208,1008L1208,1376L1400,1376C1436,1376 1464,1348 1464,1312L1464,672C1464,637 1436,608 1400,608Z" style="fill:rgb(220,23,96);fill-rule:nonzero;"/>
            </g>
            <g transform="matrix(0.0467209,0,0,0.0467245,0.529789,0.529809)">
                <rect x="536" y="512" width="448" height="64" style="fill:rgb(220,23,96);"/>
            </g>
            <g transform="matrix(0.0467209,0,0,0.0467245,0.529789,0.529809)">
                <rect x="536" y="384" width="224" height="64" style="fill:rgb(220,23,96);"/>
            </g>
            <g transform="matrix(0.0467209,0,0,0.0467245,0.529789,0.529809)">
                <rect x="536" y="640" width="448" height="64" style="fill:rgb(220,23,96);"/>
            </g>
        </g>
    </g>
</svg>
